<svg xmlns="http://www.w3.org/2000/svg" width="17" height="19" viewBox="0 0 17 19" fill="none">
<path fill-rule="evenodd" clip-rule="evenodd" d="M11.7615 17.4167H4.80495C2.24965 17.4167 0.289314 16.4937 0.84614 12.779L1.4945 7.74466C1.83775 5.89111 3.02005 5.18173 4.05743 5.18173H12.5395C13.5921 5.18173 14.7058 5.94451 15.1024 7.74466L15.7508 12.779C16.2237 16.0742 14.3168 17.4167 11.7615 17.4167Z" stroke="#53545C" stroke-width="1.5" stroke-linecap="round" stroke-linejoin="round"/>
<path d="M11.8758 4.99865C11.8758 3.01026 10.2639 1.39835 8.27547 1.39835V1.39835C7.31797 1.39429 6.3983 1.77182 5.71981 2.44744C5.04131 3.12307 4.6599 4.04114 4.65991 4.99865H4.65991" stroke="#53545C" stroke-width="1.5" stroke-linecap="round" stroke-linejoin="round"/>
<path d="M10.7469 8.75151H10.7088" stroke="#53545C" stroke-width="1.5" stroke-linecap="round" stroke-linejoin="round"/>
<path d="M5.88801 8.75151H5.84987" stroke="#53545C" stroke-width="1.5" stroke-linecap="round" stroke-linejoin="round"/>
</svg>