<svg width="16" height="18" viewBox="0 0 16 18" fill="none" xmlns="http://www.w3.org/2000/svg">
<g id="Notification">
<path id="Fill 1" d="M14.4747 8.70444C13.8659 7.99357 13.5893 7.37753 13.5893 6.33095V5.9751C13.5893 4.61127 13.2754 3.73254 12.593 2.85382C11.5411 1.48915 9.7704 0.666656 8.03694 0.666656H7.96323C6.26621 0.666656 4.55097 1.45138 3.48091 2.76066C2.76119 3.65701 2.41085 4.5735 2.41085 5.9751V6.33095C2.41085 7.37753 2.15245 7.99357 1.52549 8.70444C1.06417 9.22815 0.916748 9.90125 0.916748 10.6297C0.916748 11.3591 1.1561 12.0498 1.63647 12.6113C2.26343 13.2844 3.1488 13.7141 4.05321 13.7888C5.36262 13.9382 6.67203 13.9944 8.0005 13.9944C9.32813 13.9944 10.6375 13.9004 11.9478 13.7888C12.8514 13.7141 13.7367 13.2844 14.3637 12.6113C14.8432 12.0498 15.0834 11.3591 15.0834 10.6297C15.0834 9.90125 14.936 9.22815 14.4747 8.70444Z" fill="#5570F1"/>
<path id="Fill 4" opacity="0.4" d="M9.67396 15.0236C9.25737 14.9347 6.71888 14.9347 6.30229 15.0236C5.94616 15.1059 5.56104 15.2972 5.56104 15.7169C5.58174 16.1172 5.81613 16.4706 6.14079 16.6946L6.13996 16.6955C6.55987 17.0228 7.05266 17.2309 7.56864 17.3056C7.8436 17.3434 8.12354 17.3417 8.40845 17.3056C8.9236 17.2309 9.41639 17.0228 9.8363 16.6955L9.83547 16.6946C10.1601 16.4706 10.3945 16.1172 10.4152 15.7169C10.4152 15.2972 10.0301 15.1059 9.67396 15.0236Z" fill="#5570F1"/>
</g>
</svg>
