<svg width="18" height="18" viewBox="0 0 18 18" fill="none" xmlns="http://www.w3.org/2000/svg">
<g id="Send">
<path id="Fill 1" d="M16.8563 1.14857C16.4396 0.722739 15.8229 0.565239 15.2479 0.731905L1.8396 4.60607C1.23293 4.77441 0.802932 5.25524 0.687098 5.86524C0.568765 6.48691 0.982098 7.27691 1.5221 7.60691L5.7146 10.1669C6.1446 10.4302 6.6996 10.3644 7.05543 10.0077L11.8563 5.20691C12.0979 4.95607 12.4979 4.95607 12.7396 5.20691C12.9813 5.44774 12.9813 5.84024 12.7396 6.09024L7.93043 10.8911C7.57377 11.2477 7.5071 11.8011 7.7696 12.2319L10.3313 16.4402C10.6313 16.9394 11.1479 17.2236 11.7146 17.2236C11.7813 17.2236 11.8563 17.2236 11.9229 17.2144C12.5729 17.1319 13.0896 16.6894 13.2813 16.0644L17.2563 2.75691C17.4313 2.19024 17.2729 1.57357 16.8563 1.14857Z" fill="#1C1D22"/>
<path id="Combined Shape" opacity="0.4" fill-rule="evenodd" clip-rule="evenodd" d="M1.50882 13.0065C1.34882 13.0065 1.18882 12.9457 1.06716 12.8232C0.822992 12.579 0.822992 12.184 1.06716 11.9398L2.20466 10.8015C2.44883 10.5582 2.84466 10.5582 3.08883 10.8015C3.33216 11.0457 3.33216 11.4415 3.08883 11.6857L1.95049 12.8232C1.82882 12.9457 1.66882 13.0065 1.50882 13.0065ZM4.64316 14.0002C4.48316 14.0002 4.32316 13.9393 4.20149 13.8168C3.95733 13.5727 3.95733 13.1777 4.20149 12.9335L5.33899 11.7952C5.58316 11.5518 5.97899 11.5518 6.22316 11.7952C6.46649 12.0393 6.46649 12.4352 6.22316 12.6793L5.08483 13.8168C4.96316 13.9393 4.80316 14.0002 4.64316 14.0002ZM4.85458 16.9735C4.97624 17.096 5.13624 17.1568 5.29624 17.1568C5.45624 17.1568 5.61624 17.096 5.73791 16.9735L6.87624 15.836C7.11958 15.5918 7.11958 15.196 6.87624 14.9518C6.63207 14.7085 6.23624 14.7085 5.99207 14.9518L4.85458 16.0902C4.61041 16.3343 4.61041 16.7293 4.85458 16.9735Z" fill="#1C1D22"/>
</g>
</svg>
